<?xml version="1.0" encoding="utf-8"?>
<!-- Generator: Adobe Illustrator 16.0.4, SVG Export Plug-In . SVG Version: 6.00 Build 0)  -->
<!DOCTYPE svg PUBLIC "-//W3C//DTD SVG 1.1//EN" "http://www.w3.org/Graphics/SVG/1.1/DTD/svg11.dtd">
<svg version="1.1" id="Logo" xmlns="http://www.w3.org/2000/svg" xmlns:xlink="http://www.w3.org/1999/xlink" x="0px" y="0px"
	 width="74.778px" height="279.439px" viewBox="0 0 74.778 279.439" enable-background="new 0 0 74.778 279.439"
	 xml:space="preserve">
<g>
	<path fill="#648DC5" d="M53.685,189.412c-0.428,0.037-0.738,0.224-0.738,0.224L3.303,219.344l-0.075,0.045
		c-0.066,0.053-0.111,0.131-0.118,0.219c-0.001,0.008-0.003,0.016-0.003,0.023l0.001,0.014c-0.007,0.413,0.14,1.404,1.556,2.289
		c0.653,0.406,12.67,7.111,12.716,7.136l37.394-23.072l0.001-16.134C54.498,189.586,54.111,189.376,53.685,189.412z"/>
	<path fill="#BFDBE8" d="M0.001,240.072v0.008c0,0-0.068,0.716,0.742,1.354c0.038,0.033,48.296,33.85,53.682,37.624
		c0.104,0.101,0.223,0.184,0.353,0.247c0.182,0.09,0.388,0.141,0.606,0.141c0.353,0,0.674-0.134,0.917-0.352
		c0.034-0.036,0.072-0.074,0.113-0.114c2.819-2.849,16.391-17.351,16.391-17.351c-0.057,0.008-0.72,0.09-1.359-0.234
		c-7.729-3.387-67.712-36.776-68.06-37.002c-1.494-0.967-1.558-2.439-1.558-2.521L0.001,240.072z"/>
	<path fill="#30539C" d="M57.437,250.385v0.667c7.771,4.194,13.914,7.432,16.053,8.37c0.071,0.029,0.138,0.058,0.204,0.082
		c0.088,0.035,0.181,0.062,0.276,0.083c0.085,0.017,0.176,0.026,0.266,0.026c0.195,0,0.381-0.042,0.549-0.113
		c-0.22-0.879-0.438-1.743-0.652-2.596c-16.35-65.012-16.185-64.351-16.355-65.05c-0.117-0.487-0.33-0.59-0.34-0.601V250.385z"/>
</g>
<path fill="#30539C" d="M16.811,11.035c-2.059,0-3.107-1.148-3.107-3.225c0-2.186,1.155-3.369,3.107-3.369h0.181v6.594H16.811z
	 M17.791,0c-5.39,0-8.173,2.613-8.173,7.668c0,6.055,4.266,8.168,9.582,8.168c6.362,0,9.361-3.012,9.361-9.172
	c0-2.008-0.325-4.371-1.045-6.09l-4.448,0.715c0.543,1.182,1.046,3.549,1.046,5.338c0,3.045-1.374,4.408-3.109,4.408h-0.181V0.392
	C19.812,0.07,18.402,0,17.791,0 M28.127,35.561v-4.656H2.821v4.656H28.127z M18.619,30.545l9.509-7.487V17.25l-9.509,7.492
	l-8.566-6.773v5.807L18.619,30.545z M28.127,49.83v-4.658H14.353c-0.215-0.609-0.287-1.217-0.287-2.434
	c0-1.186,0.18-2.113,0.398-2.689l-4.412-0.717c-0.291,1.148-0.435,2.186-0.435,3.764c0,2.15,0.289,4.835,1.155,6.734H28.127z
	 M16.811,65.564c-2.059,0-3.107-1.146-3.107-3.223c0-2.188,1.155-3.369,3.107-3.369h0.181v6.592H16.811z M17.791,54.535
	c-5.39,0-8.173,2.611-8.173,7.664c0,6.053,4.266,8.168,9.582,8.168c6.362,0,9.361-3.008,9.361-9.172
	c0-2.008-0.325-4.371-1.045-6.092l-4.448,0.719c0.543,1.182,1.046,3.547,1.046,5.334c0,3.051-1.374,4.408-3.109,4.408h-0.181V54.926
	C19.812,54.604,18.402,54.535,17.791,54.535 M10.052,96.613v4.836l18.075-6.018v-4.875L17.32,86.973l10.808-3.615v-4.875
	l-18.075-6.018v4.836l12.002,3.617l-12.002,3.617v4.84l12.002,3.619L10.052,96.613z M21.621,115.256
	c5.277,0,6.905-2.938,6.905-6.916c0-1.719-0.251-3.225-0.762-4.479l-4.444,0.715c0.434,0.898,0.763,2.328,0.763,3.764
	c0,1.361-0.618,2.26-2.427,2.26h-7.159v-6.094h-4.445v6.094H5.35v4.656H21.621z M19.086,131.863c-3.396,0-5.021-0.828-5.021-4.018
	c0-1.215,0.215-2.15,0.471-2.615h9.29c0.215,0.752,0.287,1.578,0.287,2.436C24.114,130.75,22.596,131.863,19.086,131.863
	 M2.821,120.576v4.654h7.231c-0.326,0.898-0.435,2.01-0.435,2.975c0,5.197,3.758,8.348,9.257,8.348c6,0,9.686-2.863,9.686-9.062
	c0-1.217-0.142-4.621-1.156-6.914H2.821z M24.297,145.381c0.215,0.825,0.286,1.97,0.286,2.938c0,1.541-0.181,2.652-1.987,2.652
	c-1.337,0-1.988-0.607-1.988-2.363v-3.227H24.297z M16.486,140.759c-5.101,0-6.869,3.298-6.869,7.776c0,2.257,0.435,4.334,0.87,5.91
	l4.265-0.682c-0.435-1.107-0.869-2.828-0.869-4.979c0-2.147,0.541-3.403,2.062-3.403h1.122v3.154c0,4.193,1.517,7.092,5.712,7.092
	c3.868,0,5.782-2.293,5.782-7.486c0-2.366-0.397-5.375-1.156-7.382H16.486z M21.621,169.883c5.277,0,6.905-2.939,6.905-6.915
	c0-1.722-0.251-3.228-0.762-4.478l-4.444,0.715c0.434,0.896,0.763,2.327,0.763,3.763c0,1.361-0.618,2.256-2.427,2.256h-7.159v-6.089
	h-4.445v6.089H5.35v4.659H21.621z M26.427,189.986c1.377-1.9,2.134-4.621,2.134-7.273c0-4.479-2.204-8.74-7.481-8.74
	c-8.171,0-5.496,10.816-10.051,10.816c-1.484,0-2.243-1.434-2.243-3.296c0-1.683,0.613-3.726,1.952-5.376l-4.374-1.395
	c-1.371,1.791-2.096,4.266-2.096,6.699c0,4.193,2.169,8.205,7.015,8.205c8.637,0,6.073-10.821,10.229-10.821
	c1.702,0,2.53,1.685,2.53,3.801c0,1.933-0.687,4.226-1.987,5.983L26.427,189.986z"/>
<path fill="#30539C" d="M46.115,11.035c-2.064,0-3.111-1.148-3.111-3.225c0-2.186,1.154-3.369,3.111-3.369h0.18v6.594H46.115z
	 M47.087,0c-5.387,0-8.172,2.613-8.172,7.666c0,6.057,4.268,8.17,9.583,8.17c6.365,0,9.363-3.012,9.363-9.172
	c0-2.008-0.328-4.371-1.047-6.09l-4.447,0.717c0.539,1.18,1.047,3.547,1.047,5.336c0,3.045-1.373,4.408-3.107,4.408h-0.182V0.392
	C49.113,0.07,47.703,0,47.087,0 M57.427,35.875v-4.66H43.689c-0.144-0.533-0.323-1.932-0.323-3.471c0-1.899,0.756-3.188,2.817-3.188
	h11.244v-4.623H46.183c-5.206,0-7.268,3.008-7.268,7.595c0,1.219,0.107,2.578,0.399,3.688h-7.199v4.66H57.427z M39.352,41.495v4.658
	h13.738c0.215,1.006,0.324,2.257,0.324,3.583c0,1.9-0.865,3.082-2.818,3.082H39.352v4.623h11.386c5.062,0,7.123-3.049,7.123-7.596
	c0-2.759-0.328-6.128-1.158-8.351H39.352z M57.427,71.113v-4.654H43.653c-0.218-0.609-0.287-1.219-0.287-2.438
	c0-1.18,0.18-2.115,0.397-2.684l-4.412-0.719c-0.291,1.146-0.437,2.186-0.437,3.764c0,2.146,0.292,4.832,1.157,6.73H57.427z
	 M56.994,89.461c0.471-1.363,0.867-3.475,0.867-5.664c0-5.084-1.52-8.312-6.037-8.312c-6.871,0-4.879,9.141-7.338,9.141
	c-0.797,0-1.12-1.039-1.12-2.367c0-1.684,0.577-3.867,1.226-5.086l-4.589-0.717c-0.577,1.324-1.087,3.33-1.087,5.195
	c0,4.189,1.305,7.67,5.785,7.67c7.159,0,4.665-9.141,7.487-9.141c0.865,0,1.227,1.289,1.227,2.906c0,2.037-0.434,4.475-0.941,5.66
	L56.994,89.461z M51.968,100.783c4.121,0,5.818-2.297,5.818-5.338c0-0.934-0.146-1.723-0.359-2.295l-4.305,0.684
	c0.146,0.283,0.219,0.787,0.219,1.074c0,0.82-0.539,1.215-2.422,1.215H32.115v4.66H51.968z M57.427,114.311v-4.656H43.653
	c-0.218-0.607-0.287-1.219-0.287-2.439c0-1.182,0.18-2.109,0.397-2.686l-4.412-0.715c-0.291,1.146-0.437,2.184-0.437,3.764
	c0,2.148,0.292,4.832,1.157,6.732H57.427z M53.593,123.986c0.219,0.82,0.289,1.969,0.289,2.938c0,1.539-0.18,2.648-1.988,2.648
	c-1.336,0-1.986-0.605-1.986-2.361v-3.225H53.593z M45.787,119.365c-5.096,0-6.872,3.297-6.872,7.771
	c0,2.258,0.437,4.338,0.868,5.914l4.267-0.682c-0.434-1.109-0.867-2.832-0.867-4.979c0-2.15,0.539-3.404,2.062-3.404h1.119v3.15
	c0,4.189,1.518,7.096,5.713,7.096c3.865,0,5.783-2.293,5.783-7.486c0-2.365-0.396-5.381-1.158-7.381H45.787z M57.427,155.457v-4.801
	H33.926v4.801H57.427z M45.136,150.297l12.291-8.849v-5.696l-12.291,8.849l-11.21-8.134v5.695L45.136,150.297z"/>
</svg>
