<?xml version="1.0" encoding="utf-8"?>
<!-- Generator: Adobe Illustrator 16.0.4, SVG Export Plug-In . SVG Version: 6.00 Build 0)  -->
<!DOCTYPE svg PUBLIC "-//W3C//DTD SVG 1.1//EN" "http://www.w3.org/Graphics/SVG/1.1/DTD/svg11.dtd">
<svg version="1.1" id="Logo" xmlns="http://www.w3.org/2000/svg" xmlns:xlink="http://www.w3.org/1999/xlink" x="0px" y="0px"
	 width="279.445px" height="74.784px" viewBox="0 0 279.445 74.784" enable-background="new 0 0 279.445 74.784"
	 xml:space="preserve">
<g>
	<path fill="#648DC5" d="M90.032,53.686c-0.037-0.428-0.223-0.738-0.223-0.738L60.101,3.303l-0.045-0.075
		c-0.053-0.066-0.131-0.111-0.219-0.118c-0.008-0.001-0.016-0.003-0.023-0.003L59.8,3.108c-0.413-0.007-1.403,0.14-2.288,1.556
		c-0.406,0.653-7.112,12.67-7.136,12.716l23.072,37.393l16.134,0.002C89.859,54.497,90.069,54.111,90.032,53.686z"/>
	<path fill="#BFDBE8" d="M39.373,0.001h-0.008c0,0-0.716-0.068-1.354,0.742C37.979,0.782,4.162,49.039,0.387,54.425
		c-0.1,0.104-0.184,0.223-0.247,0.353C0.051,54.959,0,55.165,0,55.384c0,0.353,0.133,0.674,0.351,0.917
		c0.037,0.034,0.075,0.072,0.115,0.113c2.849,2.819,17.351,16.391,17.351,16.391c-0.008-0.057-0.089-0.72,0.234-1.359
		c3.387-7.729,36.777-67.711,37.002-68.059c0.967-1.494,2.439-1.558,2.522-1.558L39.373,0.001z"/>
	<path fill="#30539C" d="M29.061,57.437h-0.667c-4.195,7.771-7.432,13.914-8.37,16.053c-0.03,0.071-0.058,0.138-0.082,0.204
		c-0.035,0.088-0.063,0.181-0.083,0.276c-0.016,0.085-0.026,0.176-0.026,0.266c0,0.195,0.042,0.381,0.113,0.549
		c0.878-0.22,1.743-0.438,2.596-0.652c65.011-16.349,64.351-16.185,65.05-16.355c0.487-0.117,0.59-0.33,0.6-0.34H29.061z"/>
</g>
<path fill="#30539C" d="M268.41,16.811c0-2.059,1.148-3.107,3.225-3.107c2.186,0,3.369,1.155,3.369,3.107v0.181h-6.594V16.811z
	 M279.445,17.791c0-5.39-2.613-8.173-7.668-8.173c-6.055,0-8.168,4.266-8.168,9.582c0,6.362,3.012,9.361,9.172,9.361
	c2.008,0,4.371-0.325,6.09-1.045l-0.715-4.448c-1.182,0.543-3.549,1.046-5.338,1.046c-3.045,0-4.408-1.374-4.408-3.109v-0.181
	h10.643C279.375,19.812,279.445,18.402,279.445,17.791 M243.884,28.127h4.656V2.821h-4.656V28.127z M248.899,18.619l7.487,9.509
	h5.809l-7.492-9.509l6.773-8.566h-5.807L248.899,18.619z M229.614,28.127h4.658V14.353c0.609-0.215,1.217-0.287,2.434-0.287
	c1.186,0,2.113,0.18,2.689,0.398l0.717-4.412c-1.148-0.291-2.186-0.435-3.764-0.435c-2.15,0-4.836,0.289-6.734,1.155V28.127z
	 M213.88,16.811c0-2.059,1.146-3.107,3.223-3.107c2.188,0,3.369,1.155,3.369,3.107v0.181h-6.592V16.811z M224.909,17.791
	c0-5.39-2.611-8.173-7.664-8.173c-6.053,0-8.168,4.266-8.168,9.582c0,6.362,3.008,9.361,9.172,9.361
	c2.008,0,4.371-0.325,6.092-1.045l-0.719-4.448c-1.182,0.543-3.547,1.046-5.334,1.046c-3.051,0-4.408-1.374-4.408-3.109v-0.181
	h10.639C224.841,19.812,224.909,18.402,224.909,17.791 M182.831,10.052h-4.835l6.017,18.075h4.875l3.584-10.808l3.615,10.808h4.875
	l6.018-18.075h-4.836l-3.617,12.002l-3.617-12.002h-4.84l-3.619,12.002L182.831,10.052z M164.189,21.621
	c0,5.277,2.938,6.905,6.916,6.905c1.719,0,3.225-0.251,4.479-0.762l-0.715-4.444c-0.898,0.434-2.328,0.763-3.764,0.763
	c-1.361,0-2.26-0.618-2.26-2.427v-7.159h6.094v-4.445h-6.094V5.35h-4.656V21.621z M147.582,19.086c0-3.396,0.828-5.021,4.018-5.021
	c1.215,0,2.15,0.215,2.615,0.471v9.29c-0.752,0.215-1.578,0.287-2.436,0.287C148.695,24.114,147.582,22.596,147.582,19.086
	 M158.869,2.821h-4.654v7.231c-0.898-0.326-2.01-0.435-2.975-0.435c-5.197,0-8.348,3.758-8.348,9.257c0,6,2.864,9.686,9.063,9.686
	c1.217,0,4.621-0.142,6.914-1.156V2.821z M134.063,24.297c-0.825,0.215-1.969,0.286-2.937,0.286c-1.541,0-2.652-0.181-2.652-1.987
	c0-1.337,0.607-1.988,2.363-1.988h3.226V24.297z M138.686,16.486c0-5.101-3.298-6.869-7.776-6.869c-2.257,0-4.334,0.435-5.911,0.87
	l0.682,4.265c1.107-0.435,2.828-0.869,4.979-0.869c2.147,0,3.403,0.541,3.403,2.062v1.122h-3.154c-4.193,0-7.092,1.517-7.092,5.712
	c0,3.868,2.293,5.782,7.486,5.782c2.367,0,5.376-0.397,7.382-1.156V16.486z M109.562,21.621c0,5.277,2.938,6.905,6.915,6.905
	c1.722,0,3.227-0.251,4.477-0.762l-0.714-4.444c-0.896,0.434-2.327,0.763-3.763,0.763c-1.361,0-2.256-0.618-2.256-2.427v-7.159
	h6.089v-4.445h-6.089V5.35h-4.659V21.621z M89.458,26.427c1.9,1.377,4.622,2.134,7.274,2.134c4.479,0,8.74-2.204,8.74-7.481
	c0-8.171-10.817-5.496-10.817-10.051c0-1.484,1.434-2.243,3.296-2.243c1.683,0,3.726,0.613,5.376,1.952l1.395-4.374
	c-1.791-1.371-4.266-2.096-6.699-2.096c-4.194,0-8.206,2.169-8.206,7.015c0,8.637,10.821,6.073,10.821,10.229
	c0,1.702-1.684,2.53-3.801,2.53c-1.933,0-4.226-0.687-5.984-1.987L89.458,26.427z"/>
<path fill="#30539C" d="M268.41,46.114c0-2.063,1.148-3.11,3.225-3.11c2.186,0,3.369,1.154,3.369,3.11v0.18h-6.594V46.114z
	 M279.445,47.087c0-5.387-2.613-8.172-7.666-8.172c-6.057,0-8.17,4.269-8.17,9.583c0,6.365,3.012,9.363,9.172,9.363
	c2.008,0,4.371-0.328,6.09-1.048l-0.717-4.447c-1.18,0.54-3.547,1.048-5.336,1.048c-3.045,0-4.408-1.373-4.408-3.108v-0.182h10.643
	C279.375,49.112,279.445,47.703,279.445,47.087 M243.569,57.427h4.66V43.689c0.533-0.144,1.932-0.323,3.471-0.323
	c1.899,0,3.188,0.756,3.188,2.818v11.243h4.623V46.184c0-5.207-3.008-7.269-7.595-7.269c-1.219,0-2.578,0.107-3.688,0.399v-7.199
	h-4.66V57.427z M237.95,39.352h-4.658V53.09c-1.006,0.215-2.258,0.324-3.584,0.324c-1.9,0-3.082-0.865-3.082-2.819V39.352h-4.623
	v11.386c0,5.063,3.049,7.124,7.596,7.124c2.76,0,6.129-0.328,8.352-1.158V39.352z M208.331,57.427h4.654V43.653
	c0.609-0.217,1.219-0.287,2.438-0.287c1.18,0,2.115,0.18,2.684,0.397l0.719-4.411c-1.146-0.291-2.186-0.437-3.764-0.437
	c-2.146,0-4.832,0.292-6.73,1.157V57.427z M189.983,56.993c1.363,0.471,3.475,0.868,5.664,0.868c5.084,0,8.312-1.521,8.312-6.038
	c0-6.87-9.141-4.879-9.141-7.337c0-0.797,1.039-1.12,2.367-1.12c1.684,0,3.867,0.577,5.086,1.226l0.717-4.589
	c-1.324-0.577-3.33-1.087-5.195-1.087c-4.189,0-7.67,1.305-7.67,5.785c0,7.159,9.141,4.666,9.141,7.488
	c0,0.864-1.289,1.227-2.906,1.227c-2.037,0-4.475-0.434-5.66-0.942L189.983,56.993z M178.662,51.968
	c0,4.121,2.297,5.819,5.337,5.819c0.934,0,1.723-0.146,2.295-0.36l-0.684-4.304c-0.283,0.146-0.787,0.218-1.074,0.218
	c-0.82,0-1.215-0.539-1.215-2.421V32.115h-4.659V51.968z M165.135,57.427h4.656V43.653c0.607-0.217,1.219-0.287,2.439-0.287
	c1.182,0,2.109,0.18,2.686,0.397l0.715-4.411c-1.146-0.291-2.184-0.437-3.764-0.437c-2.148,0-4.832,0.292-6.732,1.157V57.427z
	 M155.459,53.594c-0.82,0.219-1.969,0.289-2.938,0.289c-1.539,0-2.648-0.18-2.648-1.988c0-1.336,0.605-1.986,2.361-1.986h3.225
	V53.594z M160.08,45.787c0-5.096-3.297-6.872-7.771-6.872c-2.258,0-4.338,0.437-5.914,0.868l0.682,4.268
	c1.109-0.434,2.832-0.867,4.979-0.867c2.15,0,3.404,0.539,3.404,2.062v1.119h-3.15c-4.189,0-7.096,1.518-7.096,5.713
	c0,3.866,2.293,5.784,7.486,5.784c2.365,0,5.381-0.397,7.381-1.158V45.787z M123.988,57.427h4.801V33.926h-4.801V57.427z
	 M129.147,45.136l8.849,12.291h5.697l-8.849-12.291l8.133-11.21h-5.695L129.147,45.136z"/>
</svg>
